<svg xmlns="http://www.w3.org/2000/svg" width="28" height="24" viewBox="0 0 28 24" fill="none">
  <path d="M8.44624 3.73828H0V12.0862H8.44624V3.73828Z" fill="#6FA8EC"/>
  <g style="mix-blend-mode:multiply">
    <path d="M6.97754 23.9983L15.2889 23.9748L8.41449 12.0508L0.0180664 12.086" fill="#336EB5"/>
  </g>
  <path d="M9.60938 3.69141H21.1994L21.2115 9.55929L9.63486 9.5464L9.60938 3.69141Z" fill="#6FA8EC"/>
  <path d="M21.2055 12.0833V9.38281H16.4043V12.0833H21.2055Z" fill="#6FA8EC"/>
  <path d="M14.9369 9.51953V12.0817L9.6333 12.111V9.54123L14.9369 9.51953Z" fill="#6FA8EC"/>
  <g style="mix-blend-mode:multiply">
    <path d="M16.3095 23.9937H27.9997L25.5417 19.7109L18.8533 19.7684H13.8804L16.3095 23.9937Z" fill="#336EB5"/>
    <path d="M14.9375 12.082L19.4221 19.8084L13.8805 19.7691L9.6333 12.1114L14.9375 12.082Z" fill="#336EB5"/>
    <path d="M16.4038 12.0859L20.9027 20.0522L25.5394 19.6971L21.205 12.0859H16.4038Z" fill="#336EB5"/>
  </g>
  <path d="M2.16889 3.25003C3.05525 3.25003 3.77381 2.52249 3.77381 1.62502C3.77381 0.727545 3.05525 0 2.16889 0C1.28252 0 0.563965 0.727545 0.563965 1.62502C0.563965 2.52249 1.28252 3.25003 2.16889 3.25003Z" fill="#336EB5"/>
</svg>